<svg xmlns="http://www.w3.org/2000/svg" enable-background="new 0 0 32 32" viewBox="0 0 32 32"><path fill="#37b678" d="M8.1,13.5l-0.4-0.4L19.6,1.3c0-0.1,0.1-0.1,0.2-0.1l0,0c0.7-0.7,1.7-0.7,2.4,0c0.1,0.1,0.1,0.1,0.2,0.2
		l8.5,8.5c0.8,0.8,0.8,2,0,2.8c0,0,0,0,0,0l-1,0.9"/><path fill="#00a653" d="M10.2,13.5L20.4,3.3c0.2,0.1,0.4,0.1,0.6,0.1c0.2,0,0.4-0.1,0.6-0.2l7.2,7.2c-0.1,0.2-0.1,0.4-0.1,0.6
		c0,0.2,0.1,0.4,0.1,0.6l-1.7,1.7"/><path fill="#fdd402" d="M21.3,13.5c0-0.1,0-0.2,0-0.3c0-1.4-1.1-2.5-2.5-2.5s-2.5,1.1-2.5,2.5c0,0.1,0,0.2,0,0.3"/><line x1="15.2" x2="15.2" y1="20.6" y2="20.5" fill="none"/><path fill="#b28966" d="M2.5,13.5h27c1.1,0,2,0.9,2,2v14c0,1.1-0.9,2-2,2h-27c-1.1,0-2-0.9-2-2v-14C0.5,14.4,1.4,13.5,2.5,13.5z"/><path fill="#8b6847" d="M21.5,19.5h10l0,0v6l0,0h-10c-1.7,0-3-1.3-3-3l0,0C18.5,20.8,19.8,19.5,21.5,19.5z"/><circle cx="21.5" cy="22.5" r="1" fill="#fff"/><circle cx="9.5" cy="22.5" r="6" fill="#fdd402"/><path d="M9.7,19.9c0.6,0,1,0.4,1,1c0,0.3,0.2,0.5,0.5,0.5s0.5-0.2,0.5-0.5c0-0.9-0.6-1.7-1.5-1.9v-0.6c0-0.3-0.2-0.5-0.5-0.5
		s-0.5,0.2-0.5,0.5V19c-1.1,0.3-1.7,1.4-1.4,2.4c0.2,0.9,1,1.5,1.9,1.5c0.6,0,1,0.4,1,1s-0.4,1-1,1s-1-0.4-1-1
		c0-0.3-0.2-0.5-0.5-0.5c-0.3,0-0.5,0.2-0.5,0.5c0,0.9,0.6,1.7,1.5,1.9v0.6c0,0.3,0.2,0.5,0.5,0.5s0.5-0.2,0.5-0.5v-0.6
		c1.1-0.3,1.7-1.4,1.4-2.4c-0.2-0.9-1-1.5-1.9-1.5c-0.6,0-1-0.4-1-1S9.2,19.9,9.7,19.9z M30.8,13.3l0.4-0.4c0.5-0.5,0.7-1.1,0.7-1.8
		c0-0.7-0.3-1.3-0.7-1.8l-8.5-8.5c-0.1-0.1-0.1-0.1-0.2-0.2c-0.8-0.8-2.2-0.9-3.1,0c-0.1,0.1-0.2,0.1-0.2,0.2l-12,12.1H2.5
		c-1.4,0-2.5,1.1-2.5,2.5v14c0,1.4,1.1,2.5,2.5,2.5h27c1.4,0,2.5-1.1,2.5-2.5v-14C32,14.6,31.6,13.8,30.8,13.3L30.8,13.3z M20,1.6
		C20,1.6,20,1.5,20,1.6c0.1-0.1,0.2-0.2,0.2-0.2c0.5-0.5,1.3-0.5,1.8,0c0,0,0,0,0,0c0.1,0,0.1,0.1,0.1,0.1l8.5,8.5
		c0.3,0.3,0.4,0.7,0.4,1.1c0,0.4-0.2,0.8-0.4,1.1L29.8,13c-0.1,0-0.2,0-0.3,0h-1.1l0.8-0.8c0.2-0.2,0.2-0.4,0.1-0.6
		c-0.1-0.1-0.1-0.3-0.1-0.4c0-0.2,0-0.3,0.1-0.4c0.1-0.2,0.1-0.4-0.1-0.6L22,2.9c-0.2-0.2-0.4-0.2-0.6-0.1c-0.3,0.1-0.6,0.1-0.8,0
		c-0.2-0.1-0.4,0-0.6,0.1l-10,10H8.6L20,1.6z M28.3,11.7L27,12.9h-5.2c-0.1-1.6-1.5-2.9-3.2-2.8c-1.5,0.1-2.7,1.3-2.8,2.8h-4.4
		l9.1-9.1c0.3,0.1,0.7,0.1,1,0l6.8,6.8c0,0.2-0.1,0.3-0.1,0.5C28.2,11.3,28.2,11.5,28.3,11.7L28.3,11.7z M20.8,12.9h-4
		c0.1-1.1,1.1-1.9,2.2-1.8C19.9,11.2,20.7,12,20.8,12.9z M31,24.9h-9.5c-0.8,0-1.5-0.3-2-0.9c-0.4-0.4-0.5-1-0.5-1.6
		c0-0.1,0-0.2,0-0.3c0.1-1.2,1-2.1,2.2-2.2c0.1,0,0.2,0,0.3,0H31V24.9z M31,18.9h-9.5c-0.1,0-0.3,0-0.4,0l0,0l0,0
		c-1.6,0.2-2.9,1.5-3.1,3.1l0,0l0,0c0,0.1,0,0.2,0,0.4c0,0.8,0.3,1.6,0.8,2.2c0.7,0.8,1.7,1.3,2.7,1.3H31v3.5c0,0.8-0.7,1.5-1.5,1.5
		h-27c-0.8,0-1.5-0.7-1.5-1.5v-14c0-0.8,0.7-1.5,1.5-1.5h27c0.1,0,0.2,0,0.3,0l0,0c0.7,0.2,1.1,0.8,1.1,1.5V18.9z M20,22.4
		c0,0.8,0.7,1.5,1.5,1.5s1.5-0.7,1.5-1.5s-0.7-1.5-1.5-1.5C20.7,20.9,20,21.6,20,22.4z M22,22.4c0,0.3-0.2,0.5-0.5,0.5
		S21,22.7,21,22.4s0.2-0.5,0.5-0.5C21.8,21.9,22,22.2,22,22.4z M9.5,15.9c-3.6,0-6.5,2.9-6.5,6.5s2.9,6.5,6.5,6.5S16,26,16,22.4
		C16,18.9,13.1,15.9,9.5,15.9z M9.5,27.9c-3,0-5.5-2.5-5.5-5.5s2.5-5.5,5.5-5.5s5.5,2.5,5.5,5.5C15,25.5,12.5,27.9,9.5,27.9z"/></svg>